<?xml version="1.0" encoding="UTF-8"?>
<svg width="80" height="80" viewBox="0 0 80 80" xmlns="http://www.w3.org/2000/svg">
  <g opacity="0.7">
    <path d="M0 0 L80 0 L80 10 C40 10 10 40 10 80 L0 80 Z" fill="#ffffff" opacity="0.2"/>
    <path d="M0 0 L60 0 L60 8 C30 8 8 30 8 60 L0 60 Z" fill="#ffffff" opacity="0.3"/>
    <path d="M0 0 L40 0 L40 6 C20 6 6 20 6 40 L0 40 Z" fill="#ffffff" opacity="0.4"/>
    <circle cx="15" cy="15" r="3" fill="#ffffff" opacity="0.8"/>
    <circle cx="30" cy="10" r="2" fill="#ffffff" opacity="0.6"/>
    <circle cx="10" cy="30" r="2" fill="#ffffff" opacity="0.6"/>
    <circle cx="40" cy="20" r="1.5" fill="#ffffff" opacity="0.5"/>
    <circle cx="20" cy="40" r="1.5" fill="#ffffff" opacity="0.5"/>
    <circle cx="50" cy="15" r="1" fill="#ffffff" opacity="0.4"/>
    <circle cx="15" cy="50" r="1" fill="#ffffff" opacity="0.4"/>
  </g>
</svg>
